<?xml version="1.0" encoding="UTF-8"?>
<!DOCTYPE svg PUBLIC "-//W3C//DTD SVG 1.1//EN" "http://www.w3.org/Graphics/SVG/1.1/DTD/svg11.dtd">
<svg xmlns="http://www.w3.org/2000/svg" version="1.1" width="250px" height="269px" style="shape-rendering:geometricPrecision; text-rendering:geometricPrecision; image-rendering:optimizeQuality; fill-rule:evenodd; clip-rule:evenodd" xmlns:xlink="http://www.w3.org/1999/xlink">
<g><path style="opacity:0.923" fill="#fefefe" d="M 145.5,-0.5 C 147.167,-0.5 148.833,-0.5 150.5,-0.5C 159.319,19.1406 168.152,38.8073 177,58.5C 181.942,54.9954 187.276,53.662 193,54.5C 193.667,56.1667 193.667,57.8333 193,59.5C 190.08,61.6397 186.913,63.3063 183.5,64.5C 166.968,70.763 150.635,77.5964 134.5,85C 131.798,86.0121 129.465,87.5121 127.5,89.5C 126.833,89.5 126.5,89.8333 126.5,90.5C 123.051,91.6386 119.551,92.6386 116,93.5C 111.595,93.2499 110.428,91.0832 112.5,87C 116.983,85.5943 120.983,83.4276 124.5,80.5C 115.696,61.0589 107.029,41.5589 98.5,22C 100.126,20.1814 102.126,18.8481 104.5,18C 118.478,12.2952 132.145,6.12849 145.5,-0.5 Z"/></g>
<g><path style="opacity:0.961" fill="#000000" d="M 183.5,64.5 C 185.028,65.3092 186.694,65.9759 188.5,66.5C 186.188,69.1068 184.355,72.1068 183,75.5C 182.675,82.824 186.175,87.1573 193.5,88.5C 195.135,87.9537 196.801,87.6204 198.5,87.5C 202.58,84.6213 204.58,80.6213 204.5,75.5C 206.878,77.0412 209.378,78.3745 212,79.5C 222.521,76.7162 232.687,73.0495 242.5,68.5C 241.296,76.2412 237.963,82.9078 232.5,88.5C 231.5,88.5 230.5,88.5 229.5,88.5C 229.5,89.5 229.5,90.5 229.5,91.5C 228.306,92.2719 227.306,93.2719 226.5,94.5C 228.861,94.3259 231.194,93.9926 233.5,93.5C 236.082,93.9746 238.082,93.3079 239.5,91.5C 242.308,90.0712 245.308,89.4045 248.5,89.5C 248.123,93.2118 246.456,96.2118 243.5,98.5C 241.629,98.8588 240.129,99.8588 239,101.5C 237.896,104.721 236.063,107.388 233.5,109.5C 232.833,109.5 232.5,109.833 232.5,110.5C 231.833,110.5 231.5,110.833 231.5,111.5C 224.062,112.593 221.728,116.593 224.5,123.5C 223.229,173.881 202.562,214.048 162.5,244C 142.384,257.425 120.384,265.592 96.5,268.5C 84.5,268.5 72.5,268.5 60.5,268.5C 39.5755,265.579 19.9088,258.746 1.5,248C 0.663368,246.989 0.330034,245.822 0.5,244.5C 26.5974,246.561 50.264,240.061 71.5,225C 48.5297,221.874 33.5297,209.374 26.5,187.5C 32.8806,188.818 39.214,188.651 45.5,187C 21.4064,178.39 9.0731,161.224 8.5,135.5C 14.9556,138.265 21.6222,140.099 28.5,141C 12.495,127.537 6.32835,110.37 10,89.5C 10.9935,83.4985 13.3268,78.1652 17,73.5C 40.5763,100.548 70.0763,117.715 105.5,125C 110.799,126.145 116.132,126.478 121.5,126C 119.143,113.624 120.81,101.791 126.5,90.5C 127.167,90.5 127.5,90.1667 127.5,89.5C 129.465,87.5121 131.798,86.0121 134.5,85C 150.635,77.5964 166.968,70.763 183.5,64.5 Z M 229.5,91.5 C 231.38,91.2291 232.713,91.8958 233.5,93.5C 231.194,93.9926 228.861,94.3259 226.5,94.5C 227.306,93.2719 228.306,92.2719 229.5,91.5 Z"/></g>
<g><path style="opacity:0.794" fill="#f2f2f2" d="M 188.5,66.5 C 192.637,66.1463 196.637,66.6463 200.5,68C 203.024,69.883 204.358,72.383 204.5,75.5C 204.58,80.6213 202.58,84.6213 198.5,87.5C 196.801,87.6204 195.135,87.9537 193.5,88.5C 186.175,87.1573 182.675,82.824 183,75.5C 184.355,72.1068 186.188,69.1068 188.5,66.5 Z"/></g>
<g><path style="opacity:0.999" fill="#111111" d="M 190.5,70.5 C 199.85,70.3654 202.517,74.532 198.5,83C 189.956,86.3224 186.123,83.4891 187,74.5C 187.69,72.6498 188.856,71.3164 190.5,70.5 Z"/></g>
<g><path style="opacity:0.991" fill="#f7f7f7" d="M 198.5,87.5 C 200.117,86.962 201.784,86.6287 203.5,86.5C 204.635,91.236 205.968,95.9026 207.5,100.5C 196.464,102.365 189.297,108.698 186,119.5C 174.659,132.086 161.993,133.753 148,124.5C 143.033,117.267 143.533,110.433 149.5,104C 150.635,103.251 151.635,103.417 152.5,104.5C 147.35,108.783 146.517,113.783 150,119.5C 160.081,126.869 169.081,125.536 177,115.5C 179.89,102.789 187.056,93.456 198.5,87.5 Z"/></g>
<g><path style="opacity:0.438" fill="#f4f4f4" d="M 232.5,88.5 C 235.491,88.1663 237.824,89.1663 239.5,91.5C 238.082,93.3079 236.082,93.9746 233.5,93.5C 232.713,91.8958 231.38,91.2291 229.5,91.5C 229.5,90.5 229.5,89.5 229.5,88.5C 230.5,88.5 231.5,88.5 232.5,88.5 Z"/></g>
<g><path style="opacity:0.703" fill="#f8f8f8" d="M 243.5,98.5 C 245.204,112.706 238.871,121.039 224.5,123.5C 221.728,116.593 224.062,112.593 231.5,111.5C 232.167,111.5 232.5,111.167 232.5,110.5C 233.167,110.5 233.5,110.167 233.5,109.5C 236.063,107.388 237.896,104.721 239,101.5C 240.129,99.8588 241.629,98.8588 243.5,98.5 Z"/></g>
</svg>
