<?xml version="1.0" standalone="no"?>
<!DOCTYPE svg PUBLIC "-//W3C//DTD SVG 20010904//EN"
 "http://www.w3.org/TR/2001/REC-SVG-20010904/DTD/svg10.dtd">
<svg version="1.0" xmlns="http://www.w3.org/2000/svg"
 width="27.000000pt" height="29.000000pt" viewBox="0 0 27.000000 29.000000"
 preserveAspectRatio="xMidYMid meet">

<g transform="translate(0.000000,29.000000) scale(0.100000,-0.100000)"
fill="#000" stroke="none">
<path d="M67 250 l6 -35 -21 19 c-28 24 -28 23 8 -64 17 -40 30 -77 30 -83 0
-6 -15 -24 -32 -39 l-33 -29 50 27 c85 47 125 74 125 84 0 5 12 13 26 16 l27
7 -24 13 c-20 10 -27 10 -40 -2 -17 -15 -20 -12 -111 100 -18 21 -18 20 -11
-14z"/>
</g>
</svg>
