<svg xmlns="http://www.w3.org/2000/svg" xmlns:xlink="http://www.w3.org/1999/xlink" width="250" height="269" viewBox="0 0 250 269" version="1.1">
    <g id="Page-1" stroke="none" stroke-width="1" fill="none" fill-rule="evenodd">
        <g transform="translate(-75.000000, -33.000000)">
            <rect id="Rectangle" x="0" y="0" width="400" height="400"/>
            <path d="M318.454321,132.732157 C317.589882,129.357244 315.688457,126.527444 313.295019,124.763945 C310.928915,122.945765 308.108382,122.279326 305.774738,122.540775 C303.420593,122.783427 301.638754,123.834349 300.360887,124.767363 C299.103521,125.767021 298.26129,126.686364 297.740235,127.345967 C297.222596,128.00557 296.949256,128.361004 296.949256,128.361004 C296.949256,128.361004 297.268723,128.048291 297.868363,127.465584 C298.466296,126.888004 299.416154,126.107075 300.728188,125.327855 C302.055598,124.610152 303.815228,123.900993 305.836239,123.981307 C307.838459,124.03599 310.018349,124.904068 311.71306,126.61972 C313.433397,128.285816 314.603636,130.758474 314.895769,133.395177 C315.220361,136.050678 314.475508,138.830922 312.943093,141.18738 C311.321842,143.552382 309.03774,145.456004 306.259917,146.826475 C303.678558,148.111505 300.564184,148.586555 297.531813,148.495988 C294.487483,148.396877 291.465362,147.715059 288.800292,146.493255 C286.145472,145.310754 283.757159,143.578014 281.99753,141.717113 C281.587519,141.219848 281.283428,140.987449 280.774331,140.326137 L280.032895,139.352111 L279.662177,138.865099 L279.477672,138.625864 L279.431546,138.564347 L279.41617,138.540424 C279.443504,138.572891 279.487922,138.625864 279.569924,138.724976 L279.457171,138.578018 C278.322808,136.999071 277.080817,135.536324 275.741449,134.193195 C273.043919,131.522314 269.965422,129.492241 266.994552,128.060252 C260.986186,125.199694 255.697047,124.512749 252.239289,124.058204 C250.506994,123.86169 249.140291,123.76087 248.260476,123.690809 C247.423371,123.631 246.975776,123.593406 246.975776,123.593406 L246.914274,139.471729 C246.914274,139.471729 247.361869,139.44097 248.198975,139.38287 C248.947244,139.343567 250.054274,139.285468 251.460269,139.211988 C254.185132,139.15218 257.96919,139.15218 261.913835,140.356895 C263.881887,140.958399 265.884106,141.877742 267.802615,143.263592 C268.743931,143.971042 269.681831,144.779312 270.583855,145.698656 L270.676107,145.77897 L270.881112,146.026748 L270.911863,146.05409 L270.966531,146.103645 L271.183495,146.318956 L271.612298,146.747869 L272.483571,147.61253 C273.062711,148.191819 274.056988,149.005216 274.84455,149.673363 C278.097302,152.236587 281.75494,154.092362 285.721794,155.244104 C289.664731,156.400973 293.840007,156.742736 297.91449,156.298444 C301.977013,155.835355 306.020744,154.637475 309.478502,152.296396 C312.739796,150.09544 315.582537,147.041785 317.261873,143.578014 C318.924125,140.064688 319.352928,136.108778 318.454321,132.732157 Z" id="Shape" fill="#000000" fill-rule="nonzero"/>
            <path d="M153.62,301.59 C247.96,301.59 299.56,223.43 299.56,155.65 C299.56,153.43 299.56,151.22 299.41,149.02 C309.448314,141.759109 318.113555,132.768794 325,122.47 C315.638791,126.618018 305.708293,129.338286 295.54,130.54 C306.24744,124.129821 314.261235,114.04772 318.09,102.17 C308.021575,108.144553 297.006461,112.35512 285.52,114.62 C269.620828,97.7139428 244.357194,93.5761258 223.895493,104.526799 C203.433792,115.477473 192.86275,138.793257 198.11,161.4 C156.868957,159.332495 118.444758,139.853233 92.4,107.81 C78.7862276,131.246447 85.7398788,161.228595 108.28,176.28 C100.117412,176.038075 92.1327937,173.836132 85,169.86 C85,170.07 85,170.29 85,170.51 C85.0066813,194.92593 102.217515,215.955352 126.15,220.79 C118.598696,222.8494 110.675806,223.150443 102.99,221.67 C109.709479,242.564228 128.965746,256.877839 150.91,257.29 C132.74735,271.564319 110.310595,279.313277 87.21,279.29 C83.1290357,279.282165 79.0520407,279.035075 75,278.55 C98.4563595,293.602766 125.749134,301.587169 153.62,301.55" id="Path" fill="#fff" fill-rule="nonzero"/>
            <g id="Group" transform="translate(224.634932, 101.367293) rotate(-20.000000) translate(-224.634932, -101.367293) translate(177.134932, 35.367293)">
                <path d="M90.2200899,101.663836 C89.4227166,101.727713 88.1888702,101.818076 86.6280545,101.998802 C83.5064231,102.414783 78.7314375,103.039533 73.3071403,105.647591 C70.6250666,106.953179 67.8412007,108.804059 65.4058963,111.239182 C64.2013538,112.463755 63.0785536,113.797386 62.054461,115.23696 L61.954211,115.370946 C62.0297841,115.279025 62.0698841,115.230728 62.094561,115.201126 L62.079138,115.224496 L62.0374956,115.280583 L61.8709264,115.4987 L61.5362455,115.939609 L60.8637993,116.827657 C60.4072761,117.430596 60.1281183,117.642481 59.7625913,118.095853 C58.1740141,119.792494 56.0178675,121.372286 53.6211208,122.450408 C51.213578,123.564364 48.4836929,124.187556 45.7368423,124.276361 C42.9992456,124.358934 40.1876181,123.925815 37.8556484,122.754214 C35.3493979,121.504714 33.2873321,119.770682 31.8236818,117.612879 C30.4402315,115.464425 29.7693275,112.929591 30.0608237,110.50849 C30.3261007,108.104526 31.3810394,105.850129 32.9341435,104.331098 C34.4610285,102.766886 36.4320981,101.975432 38.2396831,101.925577 C40.0642335,101.85391 41.6558953,102.498913 42.8496417,103.153265 C44.0341343,103.863704 44.8931998,104.577259 45.4330076,105.102298 C45.9728154,105.63357 46.261227,105.91868 46.261227,105.91868 C46.261227,105.91868 46.0144578,105.59462 45.5471384,104.99324 C45.0767345,104.391859 44.3179189,103.553666 43.1858649,102.642248 C42.0291339,101.790032 40.4235912,100.833433 38.2952062,100.612199 C36.1884134,100.37227 33.6451475,100.981441 31.5090509,102.639132 C29.3436505,104.246967 27.628604,106.826982 26.8451115,109.903993 C26.0384844,112.981004 26.4225191,116.587729 27.9231848,119.792494 C29.4408159,122.95052 32.0072164,125.73463 34.9514824,127.741309 C38.0731138,129.875742 41.7237569,130.967886 45.3913653,131.390099 C49.0713122,131.796731 52.840713,131.483577 56.3972753,130.428825 C59.9815991,129.378746 63.2836805,127.685222 66.220235,125.349809 C66.931239,124.740639 67.8304045,123.99904 68.34862,123.470885 L69.1351971,122.682547 L69.525401,122.291494 L69.7197318,122.095189 L69.7721703,122.050007 L69.7922203,122.025079 L69.9803819,121.799172 L70.0636665,121.725947 C70.8826321,120.886196 71.7216476,120.150829 72.574544,119.505825 C74.3065559,118.242303 76.1095139,117.40411 77.8908797,116.855701 C81.4505265,115.757325 84.8682811,115.757325 87.3282624,115.811854 C88.5960395,115.880405 89.5954551,115.933377 90.2725284,115.967652 C91.0282593,116.020624 91.432344,116.048667 91.432344,116.048667 L91.3799055,101.575031 C91.3799055,101.575031 90.9758208,101.609307 90.2200899,101.663836 Z" id="Path" fill="#000000" fill-rule="nonzero"/>
                <circle id="Oval" stroke="#000000" stroke-width="3" cx="85.894947" cy="90.2255305" r="9"/>
                <path d="M86.9543413,69.8432733 L73.4286867,69.8432733 L73.4286867,3.63588358 L19.1991334,3.63588358 L19.1991334,69.8432733 L5.66642686,69.8432733 C4.08678837,69.8432733 2.81038406,71.1376714 2.81038406,72.7395785 C2.81038406,74.3414855 4.08678837,75.6358836 5.66642686,75.6358836 L86.9543413,75.6358836 C88.5339797,75.6358836 89.8103841,74.3414855 89.8103841,72.7395785 C89.8103841,71.1376714 88.5339797,69.8432733 86.9543413,69.8432733 Z" id="Path" fill="#000000" fill-rule="nonzero" transform="translate(46.310384, 39.635884) rotate(-4.000000) translate(-46.310384, -39.635884) "/>
            </g>
        </g>
    </g>
</svg>